<?xml version="1.0" standalone="no"?>
<!DOCTYPE svg PUBLIC "-//W3C//DTD SVG 20010904//EN"
 "http://www.w3.org/TR/2001/REC-SVG-20010904/DTD/svg10.dtd">
<svg version="1.0" xmlns="http://www.w3.org/2000/svg"
 width="500.000000pt" height="500.000000pt" viewBox="0 0 500.000000 500.000000"
 preserveAspectRatio="xMidYMid meet">
<metadata>
Created by potrace 1.16, written by Peter Selinger 2001-2019
</metadata>
<g transform="translate(0.000000,500.000000) scale(0.100000,-0.100000)"
fill="#000000" stroke="none">
<path d="M2280 4074 c-211 -39 -345 -81 -494 -156 -240 -120 -417 -268 -578
-482 -359 -479 -419 -1134 -151 -1671 223 -447 631 -760 1129 -867 94 -20 137
-23 314 -23 226 0 332 16 513 76 120 40 322 144 434 225 120 86 301 273 382
394 266 397 348 886 225 1333 -25 90 -99 270 -144 353 -103 186 -280 387 -455
517 -106 79 -303 182 -432 226 -185 63 -247 73 -493 76 -124 2 -236 1 -250 -1z
m343 -24 c723 -60 1307 -592 1433 -1304 71 -405 -28 -842 -269 -1183 -71 -100
-232 -267 -327 -339 -402 -304 -910 -400 -1395 -265 -255 71 -479 205 -680
406 -270 269 -422 597 -457 981 -25 275 25 551 147 811 232 494 740 847 1285
892 136 12 134 12 263 1z"/>
<path d="M2630 3962 c0 -6 5 -12 11 -14 7 -2 5 -33 -7 -97 -15 -75 -22 -95
-39 -101 -22 -9 -16 -13 38 -24 28 -7 35 2 17 20 -7 7 -6 34 5 84 9 41 17 76
19 78 3 2 8 -23 11 -55 13 -104 20 -136 31 -140 7 -2 33 35 60 81 26 47 49 85
50 83 1 -1 -5 -37 -13 -79 -11 -52 -20 -78 -29 -78 -8 0 -14 -4 -14 -9 0 -11
18 -17 75 -26 36 -6 38 -5 22 8 -17 14 -17 19 0 107 14 73 21 94 37 99 24 9
13 17 -39 25 l-40 7 -39 -73 c-22 -40 -41 -68 -42 -63 -2 6 -7 43 -13 83 -5
41 -11 75 -13 77 -10 9 -88 15 -88 7z"/>
<path d="M2254 3950 c-35 -14 -54 -50 -54 -103 0 -53 20 -101 49 -117 11 -5
41 -10 66 -10 38 0 52 5 76 29 25 25 29 37 29 81 0 59 -21 103 -57 119 -28 13
-79 13 -109 1z m91 -34 c25 -38 31 -120 11 -151 -21 -32 -60 -33 -81 -1 -25
38 -31 120 -11 151 21 32 60 33 81 1z"/>
<path d="M1975 3878 c-16 -6 -46 -17 -65 -25 -31 -13 -33 -16 -15 -23 14 -5
29 -34 49 -90 24 -69 27 -86 17 -103 -12 -18 -11 -19 16 -13 15 4 52 18 80 31
92 42 109 131 38 202 -35 35 -64 40 -120 21z m72 -40 c30 -33 47 -97 34 -130
-8 -22 -46 -47 -55 -36 -11 13 -64 177 -59 182 14 14 61 4 80 -16z"/>
<path d="M3000 3764 c-41 -42 -84 -79 -95 -83 -18 -7 -17 -10 12 -25 42 -21
60 -21 43 0 -11 13 -10 18 7 35 19 20 21 20 56 3 21 -10 37 -23 37 -30 0 -23
-12 -44 -26 -44 -28 0 -13 -18 29 -34 51 -19 63 -20 49 -3 -7 9 -7 46 0 126 9
94 8 115 -3 122 -25 15 -33 10 -109 -67z"/>
<path d="M1683 3732 c-40 -26 -59 -50 -29 -39 17 7 32 -9 80 -90 26 -43 36
-68 31 -82 -3 -12 -4 -21 -1 -21 3 0 41 23 86 51 l80 51 -17 29 c-22 38 -34
37 -31 -3 3 -26 -2 -34 -28 -50 l-31 -18 -51 82 c-32 52 -47 87 -41 93 11 11
12 25 2 24 -5 0 -27 -13 -50 -27z"/>
<path d="M3270 3725 c14 -17 12 -21 -52 -102 -28 -36 -58 -63 -71 -65 -19 -3
-16 -7 23 -35 46 -35 71 -43 50 -18 -9 11 -8 20 10 45 33 46 44 38 36 -27 -6
-49 -4 -59 15 -80 30 -31 40 -29 33 7 -4 16 -3 45 0 64 5 28 12 35 33 38 14 2
35 15 46 29 17 23 17 29 5 52 -15 28 -109 107 -128 107 -10 0 -10 -3 0 -15z"/>
<path d="M1535 3603 c-30 -7 -82 -61 -88 -92 -12 -62 64 -151 130 -151 45 0
113 62 113 105 0 77 -86 154 -155 138z m41 -54 c58 -35 91 -108 62 -137 -26
-26 -64 -13 -112 38 -49 53 -55 73 -29 102 21 23 38 23 79 -3z"/>
<path d="M2262 3579 c-172 -36 -295 -93 -450 -211 -195 -148 -336 -360 -404
-608 -21 -76 -23 -106 -22 -290 0 -193 2 -210 27 -295 36 -120 114 -275 185
-371 160 -216 414 -377 672 -429 123 -25 356 -23 477 4 395 87 719 393 840
796 25 85 27 102 27 295 1 225 -10 289 -75 446 -113 271 -362 512 -636 615
-188 70 -443 90 -641 48z m435 -24 c349 -66 651 -301 798 -618 274 -593 -37
-1305 -655 -1502 -401 -127 -817 -28 -1110 265 -442 440 -432 1147 21 1575
150 142 338 238 545 279 95 19 303 19 401 1z"/>
<path d="M3494 3542 c10 -30 -119 -145 -153 -137 l-24 6 28 -33 c15 -18 45
-52 67 -76 38 -41 39 -42 63 -26 29 19 24 37 -8 29 -16 -4 -30 2 -47 20 l-24
26 32 31 32 32 30 -29 c38 -37 53 -24 15 14 l-28 30 29 25 c35 31 36 31 59 6
12 -13 15 -27 11 -45 -8 -30 4 -32 28 -6 16 17 13 21 -40 82 -62 70 -80 82
-70 51z"/>
<path d="M1337 3389 c-22 -13 -101 -119 -93 -126 3 -3 12 -1 19 5 18 15 162
-86 162 -114 0 -29 14 -20 46 28 34 50 36 63 10 46 -15 -9 -24 -8 -45 6 -25
16 -26 18 -11 46 21 41 19 67 -10 95 -26 27 -49 31 -78 14z"/>
<path d="M3573 3278 c-18 -13 -40 -38 -49 -57 -15 -31 -15 -36 1 -77 20 -53
55 -81 82 -65 11 6 13 11 5 11 -22 0 -62 48 -62 73 0 41 87 101 137 95 36 -4
52 -32 35 -59 -16 -25 -3 -45 22 -36 29 11 20 65 -18 103 -28 28 -41 34 -78
34 -29 0 -54 -8 -75 -22z"/>
<path d="M1203 3150 c-32 -13 -63 -68 -63 -113 0 -48 39 -91 98 -106 53 -15
86 -6 117 31 54 64 20 165 -63 188 -44 12 -59 12 -89 0z m75 -55 c45 -20 82
-53 82 -75 0 -30 -36 -53 -71 -46 -48 9 -99 37 -116 62 -14 22 -14 26 1 49 19
29 50 32 104 10z"/>
<path d="M3809 3103 c-1 -5 -1 -11 -1 -15 2 -12 -24 -26 -103 -52 -52 -17 -82
-23 -89 -16 -21 21 -24 8 -9 -37 18 -56 33 -76 33 -46 0 16 11 25 44 36 l43
15 12 -38 c6 -20 11 -39 11 -42 0 -3 -19 -10 -41 -17 -34 -10 -43 -10 -50 0
-17 29 -20 -3 -4 -50 16 -48 39 -72 33 -34 -2 14 14 24 72 45 84 30 116 34
123 16 2 -7 7 -11 10 -7 8 6 -24 109 -34 109 -4 0 -9 -8 -11 -18 -3 -10 -21
-23 -40 -29 l-36 -10 -12 39 c-6 22 -10 41 -8 42 2 2 18 8 37 15 27 9 36 8 42
-1 17 -28 20 4 4 51 -16 48 -23 61 -26 44z"/>
<path d="M1070 2838 c-6 -29 -14 -73 -17 -98 -5 -40 -4 -43 9 -27 13 18 17 18
106 1 76 -15 92 -21 92 -36 0 -40 19 -15 30 40 7 31 15 74 20 95 7 34 6 38
-17 43 -32 8 -54 -11 -23 -21 19 -6 21 -12 15 -43 -4 -21 -8 -39 -10 -40 -2
-2 -22 -1 -45 3 -41 7 -41 8 -39 46 4 47 -8 62 -16 23 -12 -55 -12 -55 -52
-48 -21 4 -39 7 -39 8 -1 0 1 16 3 34 4 23 12 34 29 38 26 7 33 24 10 24 -8 0
-21 3 -29 6 -11 4 -18 -8 -27 -48z"/>
<path d="M3680 2730 c0 -22 5 -40 10 -40 6 0 10 7 10 15 0 16 27 20 47 7 6 -4
14 -24 18 -44 6 -34 5 -39 -20 -50 -22 -10 -28 -9 -35 2 -15 25 -21 4 -14 -50
7 -51 8 -52 23 -32 9 11 60 41 114 66 86 40 98 48 95 68 -3 20 -16 26 -108 50
-58 15 -113 32 -122 38 -16 9 -18 6 -18 -30z"/>
<path d="M1200 2621 c0 -6 11 -13 25 -17 26 -6 40 -37 33 -71 -3 -16 -14 -18
-98 -17 -78 2 -96 5 -107 20 -11 15 -13 9 -13 -47 1 -48 3 -60 11 -46 8 14 25
17 105 17 75 0 96 -3 100 -15 16 -40 24 -6 22 83 l-3 97 -37 3 c-22 2 -38 -1
-38 -7z"/>
<path d="M3696 2458 c-20 -160 -21 -144 14 -152 44 -8 59 4 26 21 -22 11 -26
21 -26 54 l0 41 50 -6 c28 -3 73 -9 100 -12 33 -4 50 -11 50 -20 0 -8 4 -14 9
-14 5 0 11 24 13 53 4 51 0 74 -9 50 -8 -23 -203 -10 -203 13 0 7 -4 15 -9 18
-5 3 -12 -18 -15 -46z"/>
<path d="M1480 1763 c0 -33 -127 -136 -157 -128 -30 7 -29 1 9 -46 33 -41 51
-50 46 -22 -2 10 24 38 69 76 61 50 75 58 88 47 30 -25 16 14 -20 55 -30 35
-34 37 -35 18z"/>
<path d="M3495 1732 c-54 -11 -102 -91 -84 -139 21 -56 83 -103 135 -103 40 0
104 68 104 111 0 73 -86 145 -155 131z m63 -68 c17 -14 39 -39 48 -55 14 -28
14 -33 -1 -55 -23 -36 -58 -31 -110 17 -54 50 -65 81 -39 110 22 24 54 19 102
-17z"/>
<path d="M1605 1607 c8 -32 -89 -156 -123 -157 -28 0 -22 -11 19 -41 l31 -22
-6 21 c-6 16 3 35 36 76 24 30 46 55 50 55 4 1 5 -14 3 -31 -2 -18 -7 -67 -9
-110 -8 -107 6 -108 89 -7 52 63 70 79 86 74 28 -9 23 8 -11 33 -36 27 -40 27
-37 3 2 -16 -72 -126 -79 -118 -1 1 1 45 5 97 8 100 3 118 -42 141 -15 9 -17
7 -12 -14z"/>
<path d="M3219 1499 c-97 -68 -93 -63 -74 -93 20 -30 38 -25 29 8 -3 14 1 27
11 36 18 15 17 17 79 -73 32 -47 45 -75 41 -88 -8 -25 -2 -24 45 7 39 26 55
52 25 40 -10 -4 -32 18 -70 72 -30 42 -55 81 -55 85 0 15 33 20 52 8 28 -18
41 -3 21 24 -10 14 -21 25 -24 25 -3 0 -39 -23 -80 -51z"/>
<path d="M1862 1394 c-31 -21 -28 -63 8 -112 34 -47 37 -64 15 -82 -23 -19
-69 14 -62 46 5 28 -4 37 -28 28 -27 -11 -14 -55 24 -81 42 -28 85 -29 111 -3
28 28 25 60 -10 108 -33 47 -38 77 -14 86 22 9 44 -11 44 -40 0 -17 6 -24 20
-24 36 0 36 30 2 62 -36 32 -76 36 -110 12z"/>
<path d="M3031 1385 c-37 -12 -54 -34 -25 -31 12 1 25 -19 46 -69 33 -81 33
-104 -4 -124 -36 -20 -50 -7 -84 81 -23 57 -26 73 -16 89 15 23 10 24 -50 2
-50 -18 -60 -29 -31 -35 11 -2 29 -32 49 -78 39 -95 63 -112 126 -90 26 9 48
25 57 41 14 25 13 33 -17 109 -25 64 -30 85 -21 96 17 21 9 23 -30 9z"/>
<path d="M2089 1303 c-13 -34 4 -54 20 -24 7 12 20 21 30 21 33 0 33 4 -10
-162 -6 -25 -16 -38 -26 -38 -29 0 -1 -17 47 -28 40 -10 73 -6 43 5 -7 3 -13
14 -13 26 0 24 36 166 43 174 11 10 47 -19 47 -37 0 -30 17 -24 23 8 3 15 4
29 2 30 -3 3 -183 51 -193 52 -1 0 -7 -12 -13 -27z"/>
<path d="M2670 1283 c-52 -8 -96 -16 -98 -18 -2 -1 1 -18 6 -36 l9 -34 11 26
c10 24 39 45 49 35 2 -2 10 -44 18 -92 12 -80 12 -90 -3 -101 -8 -7 -13 -16
-9 -19 9 -9 107 6 107 17 0 5 -6 9 -14 9 -13 0 -36 112 -36 175 0 32 32 34 53
3 8 -13 18 -20 21 -17 8 7 -4 69 -13 68 -3 -1 -49 -8 -101 -16z"/>
<path d="M2391 1253 c11 -13 13 -41 11 -107 -3 -77 -6 -89 -23 -93 -10 -3 -16
-9 -13 -14 7 -12 114 -11 114 1 0 6 -7 10 -16 10 -15 0 -16 10 -10 77 3 42 6
87 6 100 0 14 6 23 15 23 8 0 15 5 15 10 0 6 -25 10 -57 10 -52 0 -55 -1 -42
-17z"/>
</g>
</svg>
